<svg width="355" height="355" viewBox="0 0 355 355" fill="none" xmlns="http://www.w3.org/2000/svg">
<rect width="355" height="355" rx="64" fill="#E8572B"/>
<path d="M249.487 146.418C232.843 146.418 219.35 159.911 219.35 176.555C219.35 193.198 232.843 206.691 249.487 206.691C266.13 206.691 279.623 193.198 279.623 176.555C279.623 159.911 266.13 146.418 249.487 146.418ZM249.487 190.501C241.786 190.501 235.54 184.255 235.54 176.555C235.54 168.854 241.786 162.609 249.487 162.609C257.187 162.609 263.433 168.854 263.433 176.555C263.433 184.255 257.187 190.501 249.487 190.501Z" fill="#231F20"/>
<path d="M105.28 146.418C88.6359 146.418 75.1431 159.911 75.1431 176.555C75.1431 193.198 88.6359 206.691 105.28 206.691C121.923 206.691 135.416 193.198 135.416 176.555C135.416 159.911 121.923 146.418 105.28 146.418ZM105.28 190.501C97.5789 190.501 91.3334 184.255 91.3334 176.555C91.3334 168.854 97.5789 162.609 105.28 162.609C112.98 162.609 119.226 168.854 119.226 176.555C119.226 184.255 112.98 190.501 105.28 190.501Z" fill="#231F20"/>
<path d="M282.152 194.81C282.018 194.676 281.884 194.541 281.744 194.407L280.77 193.45C277.866 198.817 273.618 203.345 268.481 206.596C283.848 223.81 283.277 250.231 266.757 266.751C249.638 283.871 221.885 283.871 204.766 266.751L193.355 255.34L181.787 267.126L196.332 281.408C220.357 304.997 258.956 304.639 282.539 280.619C305.993 256.728 305.775 218.432 282.152 194.81Z" fill="#231F20"/>
<path d="M232.032 145.596L192.823 107.098L180.959 118.963L219.49 157.494C222.624 152.569 226.933 148.472 232.032 145.59V145.596Z" fill="#231F20"/>
<path d="M232.311 207.682C227.28 204.9 222.999 200.933 219.837 196.159L149.239 266.757C132.12 283.876 104.367 283.876 87.248 266.757C70.6268 250.136 70.1455 223.491 85.7986 206.288C81.176 203.249 77.3033 199.164 74.5219 194.368L72.5967 196.332C49.1424 220.223 49.3607 258.519 72.9829 282.141C73.1172 282.276 73.2515 282.41 73.3914 282.544C97.4166 306.133 136.015 305.775 159.598 281.755L232.317 207.687L232.311 207.682Z" fill="#231F20"/>
<path d="M85.3061 147.151C70.1623 129.931 70.8059 103.685 87.248 87.248C104.367 70.1288 132.12 70.1288 149.239 87.248L160.65 98.659L172.218 86.8731L157.673 72.5912C133.647 49.0025 95.0494 49.3607 71.4663 73.3803C48.0119 97.2711 48.2302 135.567 71.8524 159.189C71.9867 159.324 72.1211 159.458 72.261 159.592L73.4418 160.756C76.1728 155.266 80.275 150.576 85.3117 147.151H85.3061Z" fill="#231F20"/>
<path d="M134.621 196.618C131.325 201.436 126.87 205.393 121.66 208.101L161.176 246.901L173.04 235.037L134.621 196.618Z" fill="#231F20"/>
<path d="M281.408 157.673C304.863 133.782 304.644 95.4859 281.022 71.8637C280.888 71.7293 280.753 71.595 280.614 71.4607C256.588 47.872 217.99 48.2302 194.407 72.2498L122.522 145.473C127.547 148.265 131.823 152.244 134.979 157.029L204.766 87.2425C221.885 70.1232 249.638 70.1232 266.757 87.2425C283.098 103.584 283.826 129.607 268.973 146.827C273.618 149.877 277.502 153.985 280.289 158.814L281.414 157.673H281.408Z" fill="#231F20"/>
</svg>
